<?xml version="1.0" standalone="no"?>
<!DOCTYPE svg PUBLIC "-//W3C//DTD SVG 20010904//EN"
 "http://www.w3.org/TR/2001/REC-SVG-20010904/DTD/svg10.dtd">
<svg version="1.0" xmlns="http://www.w3.org/2000/svg"
 width="70.000000pt" height="70.000000pt" viewBox="0 0 70.000000 70.000000"
 preserveAspectRatio="xMidYMid meet">
<metadata>
Created by potrace 1.14, written by Peter Selinger 2001-2017
</metadata>
<g transform="translate(0.000000,70.000000) scale(0.100000,-0.100000)"
fill="#000000" stroke="none">
<path d="M346 617 c-22 -7 -42 -19 -44 -27 -4 -11 2 -9 24 5 22 15 46 19 94
19 42 0 56 2 40 7 -36 10 -70 9 -114 -4z"/>
<path d="M408 563 c6 -2 18 -2 25 0 6 3 1 5 -13 5 -14 0 -19 -2 -12 -5z"/>
<path d="M165 525 c-46 -17 -89 -20 -80 -5 10 15 -11 12 -25 -4 -6 -8 -21 -16
-33 -18 -20 -3 -22 -10 -25 -76 l-3 -73 33 3 c25 2 32 -1 29 -12 -1 -8 -9 -36
-16 -62 l-12 -48 333 0 c327 0 334 0 334 20 0 18 -7 20 -81 20 -44 0 -78 4
-75 8 2 4 39 8 80 7 l76 0 0 123 0 122 -73 0 c-41 0 -108 3 -150 6 l-77 7 0
-36 c0 -26 -5 -37 -19 -42 -19 -6 -70 12 -83 30 -5 7 -11 6 -16 -2 -4 -7 -35
-15 -68 -19 -32 -3 -72 -10 -88 -15 -41 -13 -50 -11 -36 7 13 15 50 33 120 60
22 8 27 13 15 13 -11 0 -38 -6 -60 -14z m212 -207 c-3 -7 -5 -2 -5 12 0 14 2
19 5 13 2 -7 2 -19 0 -25z"/>
<path d="M0 190 c0 -11 6 -20 13 -20 8 0 9 -2 1 -8 -7 -4 -12 -40 -13 -84 -1
-66 1 -78 15 -78 13 0 15 10 12 60 l-3 60 33 0 c23 0 32 -5 32 -16 0 -14 -3
-14 -17 -3 -16 11 -16 11 -5 -1 12 -14 208 -49 275 -50 24 0 27 3 27 34 0 34
0 34 50 38 47 3 62 -3 40 -17 -6 -3 -10 -28 -10 -56 l0 -49 125 0 125 0 0 80
0 80 -165 0 c-95 0 -165 4 -165 9 0 5 8 11 18 14 9 2 -46 7 -123 11 -77 4
-168 9 -202 11 -57 4 -63 2 -63 -15z m85 -23 c12 -3 4 -5 -17 -6 -36 -1 -47 7
-31 22 3 4 11 3 17 -2 6 -5 20 -11 31 -14z"/>
<path d="M532 183 c32 -2 84 -2 116 0 31 2 5 3 -58 3 -63 0 -89 -1 -58 -3z"/>
<path d="M78 29 l4 -29 141 0 c77 0 138 2 136 4 -2 2 -53 11 -114 21 -60 9
-124 20 -141 24 -29 8 -30 7 -26 -20z"/>
</g>
</svg>
